<?xml version="1.0" encoding="utf-8"?>
<!-- Generator: Adobe Illustrator 22.0.0, SVG Export Plug-In . SVG Version: 6.00 Build 0)  -->
<svg version="1.1" id="Layer_1" xmlns="http://www.w3.org/2000/svg" xmlns:xlink="http://www.w3.org/1999/xlink" x="0px" y="0px"
	 viewBox="0 0 2166 334.8" style="enable-background:new 0 0 2166 334.8;" xml:space="preserve">
<style type="text/css">
	.st0{enable-background:new    ;}
	.st1{fill:#5170FF;}
</style>
<g>
	<g class="st0">
		<path d="M21.9,62.5c0-3.1-0.2-7.2-0.5-12.5h145.1L77.4,201.7H133c14.5,0,23-0.4,25.6-1.2c2.6-0.8,4.7-1.5,6.2-2.2v38.8
			c-4.4-0.4-8-0.7-10.9-1c-2.9-0.3-5.9-0.5-9-0.7c-4.8-0.3-14.1-0.4-27.8-0.4h-103l92.1-151.7H58c-19.9,0-32.5,1-37.9,2.9
			c1.2-4.6,1.8-11.2,1.8-19.6V62.5z"/>
		<path d="M224.9,213.1c-9.3-8.1-16.6-17.8-22-29.1c-5.4-11.3-8-23.7-8-37.2s2.5-26.3,7.5-38.4c5-12.1,12.1-22.7,21.4-31.9
			c9.3-9.2,20.5-16.5,33.7-21.9c13.2-5.4,27.9-8.1,44.2-8.1c28.2,0,51.9,8.1,71.2,24.2c20.6,17.3,30.9,40.6,30.9,69.9
			c0,28.4-10.6,52-31.8,70.9c-13.1,11.6-28.6,19.6-46.7,23.9c-8.9,2.1-19.3,3.2-31.1,3.2c-11.9,0-24.1-2.2-36.6-6.7
			C245.1,227.5,234.2,221.2,224.9,213.1z M237.5,144.9c0,8.6,1.6,16.6,4.7,23.8c3.2,7.2,7.5,13.5,13.2,18.7
			c11.9,11,27.3,16.4,46.1,16.4c17.9,0,32.2-5.2,43-15.7c11-10.9,16.5-25.7,16.5-44.4c0-17.6-5.3-32.3-15.8-44.1
			c-11.3-12.6-26.8-18.9-46.5-18.9c-19.1,0-34.2,6.4-45.4,19.2C242.7,111.8,237.5,126.8,237.5,144.9z"/>
		<path d="M509,163.2c-3.1,0.2-6.3,0.3-9.8,0.3c-3.5,0-8.6-0.2-15.5-0.7v72.4h-40.6V49c14.3-1.7,31.8-2.5,52.6-2.5
			c28.4,0,49.5,4.8,63.4,14.3c13.9,9.5,20.9,24.2,20.9,44.1c0,15.4-6.4,28.6-19.1,39.5c-4.2,3.5-9,6.6-14.4,9.2l31.2,59.9
			c6.1,12.3,10.8,19.7,14.1,22l-0.8,0.7c-9.9-1.5-25.5-1.4-46.7,0.1L509,163.2z M498.7,79.4c-5.2,0-10.2,0.2-15,0.7v53.2
			c5,0.7,10.9,1,17.6,1s12.4-0.5,17-1.6c4.6-1.1,8.6-2.7,11.9-4.9c7.2-4.9,10.9-12.3,10.9-22.1c0-9.8-3.8-16.8-11.3-20.7
			C522.7,81.2,512.4,79.4,498.7,79.4z"/>
		<path d="M630.5,49.4c10.2,0.4,16.4,0.6,18.5,0.6h11c5.4,0,9.7-0.4,13-1.1l-0.2,186.3h-42.4V49.4z"/>
		<path d="M823.3,63.5c2.1-4.1,3.2-7.1,3.2-9.1c0-2-0.2-3.5-0.6-4.4h55.1c-1.1,1.1-2.6,2.4-4.3,4c-1.7,1.5-3.7,3.4-5.8,5.5
			c-5.1,5.2-9.8,11.2-14.1,18.1l-36.9,61.3l34.4,58.9l4.1,7.7c7.8,14.7,14.3,24.6,19.7,29.8h-49.9c-0.4-3.2-2.1-7.6-5.2-13.1
			l-30-52.3c-21.1,38.9-31.9,58.9-32.4,60.1c-0.5,1.6-0.9,3.3-1.2,5.3h-49.9c3.8-3.5,7.7-8.5,11.6-14.9l18.4-29.7l32.6-50.3
			L729.3,67c-4.6-7.9-8.6-13.5-12.1-17h51.4c-0.4,0.9-0.6,1.9-0.6,3.1c0,2.5,1.3,6,3.8,10.4l25.6,46.5L823.3,63.5z"/>
		<path d="M1288.4,123.5c-1.9,3.2-2.9,10.7-2.9,22.7v43.2c0,13.1-7.4,24.5-22.3,34.1c-15.4,10.1-34.3,15.2-56.6,15.2
			c-31,0-55.8-8.9-74.2-26.6c-17.9-16.9-26.8-38.4-26.8-64.6c0-27.8,9.1-51,27.2-69.6c20.3-20.9,48.3-31.3,83.9-31.3
			c23.8,0,42.6,4.2,56.5,12.5l-2.4,41.1l-1.2,0.3c-3.6-5.7-10.6-10.3-21.1-13.9c-10-3.4-20.5-5.2-31.4-5.2c-11,0-20.6,1.6-28.8,4.7
			c-8.2,3.2-15.2,7.7-20.9,13.5c-12,12-18.1,27.8-18.1,47.5c0,17.2,5.3,31,15.9,41.3c10.6,10.3,24.3,15.5,41,15.5
			c18.5,0,30.9-4.4,37.3-13.1c2-2.8,3.1-5.9,3.1-9.5v-23.1h-19.7c-10.6,0-16.4,0.8-17.3,2.5l-0.5-0.1l-1.4-36.3
			c2.9,0.7,14.4,1.1,34.7,1.1h18.1c11.2,0,20.4-0.7,27.5-2.1L1288.4,123.5z"/>
		<path d="M1359.3,235.1c-15,0-24.9,0.3-29.8,0.8V49.1c2.4,0.6,7.5,0.8,15.2,0.8c7.7,0,16.7-0.2,26.9-0.6v152.3h31.7
			c9.2,0,16.5-0.3,22-0.8c-0.7,21.7-1.1,33-1.1,33.8v1.4c-10-0.7-26.8-1-50.3-1H1359.3z"/>
		<path d="M1477,213.1c-9.3-8.1-16.6-17.8-22-29.1c-5.4-11.3-8-23.7-8-37.2s2.5-26.3,7.5-38.4c5-12.1,12.1-22.7,21.4-31.9
			c9.3-9.2,20.5-16.5,33.7-21.9c13.2-5.4,27.9-8.1,44.2-8.1c28.2,0,51.9,8.1,71.2,24.2c20.6,17.3,30.9,40.6,30.9,69.9
			c0,28.4-10.6,52-31.8,70.9c-13.1,11.6-28.6,19.6-46.7,23.9c-8.9,2.1-19.3,3.2-31.1,3.2c-11.9,0-24.1-2.2-36.6-6.7
			C1497.1,227.5,1486.3,221.2,1477,213.1z M1489.5,144.9c0,8.6,1.6,16.6,4.7,23.8c3.2,7.2,7.5,13.5,13.2,18.7
			c11.9,11,27.3,16.4,46.1,16.4c17.9,0,32.2-5.2,43-15.7c11-10.9,16.5-25.7,16.5-44.4c0-17.6-5.3-32.3-15.8-44.1
			c-11.3-12.6-26.8-18.9-46.5-18.9c-19.1,0-34.2,6.4-45.4,19.2C1494.8,111.8,1489.5,126.8,1489.5,144.9z"/>
		<path d="M1823.8,221.6c-7.5,5.4-17.2,9.6-29.2,12.6c-11.9,3-26.6,4.5-44,4.5c-17.4,0-35.9-1.4-55.5-4.3V50.8
			c19.8-2.9,37-4.3,51.5-4.3s26.5,1.3,35.8,3.8c9.3,2.5,17,5.9,22.9,10.2c11.6,8.3,17.4,19,17.4,32.1c0,13.1-5.3,24-15.8,32.6
			c12.4,3.5,22.1,10.2,28.9,20c6.2,8.8,9.3,18.6,9.3,29.3s-1.7,19.9-5.1,27.5C1836.7,209.6,1831.3,216.1,1823.8,221.6z M1735.7,120
			c4.3,0.7,9.6,1,16.1,1c6.4,0,11.7-0.8,15.8-2.3c4.1-1.5,7.3-3.5,9.6-5.8c3.7-3.8,5.5-9.1,5.5-15.9c0-14.2-9.2-21.3-27.5-21.3
			c-7.8,0-14.2,0.3-19.4,0.8V120z M1758.4,149.8c-8.6,0-16.1,0.5-22.6,1.5V206c7.1,1.7,14.6,2.5,22.5,2.5c7.9,0,14.8-0.9,20.7-2.6
			c6-1.7,11-4.1,15.1-7c8.3-6.1,12.4-13.9,12.4-23.4C1806.4,158.4,1790.4,149.8,1758.4,149.8z"/>
		<path d="M1893.2,236.2c-8.8-0.7-19-1.1-30.8-1.1h-12.1l66.6-169.7c3-7.6,4.4-12,4.4-13.3s-0.1-2-0.2-2.3l0.2-0.3
			c6.6,0.3,13.7,0.4,21.1,0.4c6.1,0,13.5-0.1,22-0.3l0.2,0.3c-0.2,0.4-0.3,0.9-0.3,1.5c0,1.8,1.5,6.5,4.6,14.1l67.9,170
			c-2-0.1-4.4-0.1-7.2-0.1l-8-0.3c-2.6,0-4.8,0-6.9,0h-23.7l-14.4-40.1h-69.2L1893.2,236.2z M1964.8,161.6l-23.1-64.7l-22.5,64.7
			H1964.8z"/>
		<path d="M2091.4,235.1c-15,0-24.9,0.3-29.8,0.8V49.1c2.4,0.6,7.5,0.8,15.2,0.8c7.7,0,16.7-0.2,26.9-0.6v152.3h31.7
			c9.2,0,16.5-0.3,22-0.8c-0.7,21.7-1.1,33-1.1,33.8v1.4c-10-0.7-26.8-1-50.3-1H2091.4z"/>
	</g>
	<circle class="st1" cx="951.5" cy="193.6" r="41.5"/>
</g>
</svg>
